<svg data-v-0dd9719b="" version="1.0" xmlns="http://www.w3.org/2000/svg" xmlns:xlink="http://www.w3.org/1999/xlink" width="100%" height="100%" viewBox="0 0 340.000000 250.000000" preserveAspectRatio="xMidYMid meet" color-interpolation-filters="sRGB" style="margin: auto;"> <rect data-v-0dd9719b="" x="0" y="0" width="100%" height="100%" fill="#fff" fill-opacity="1" class="background"></rect> <rect data-v-0dd9719b="" x="0" y="0" width="100%" height="100%" fill="url(#watermark)" fill-opacity="1" class="watermarklayer"></rect> <g data-v-0dd9719b="" fill="#333" class="icon-text-wrapper icon-svg-group iconsvg" transform="translate(50.105003356933594,97.21875)"><g class="iconsvg-imagesvg" transform="translate(0,1.1574172973632812)"><g><rect fill="#333" fill-opacity="0" stroke-width="2" x="0" y="0" width="60" height="53.24766375875258" class="image-rect"></rect> <svg x="0" y="0" width="60" height="53.24766375875258" filtersec="colorsb7468180156" class="image-svg-svg primary" style="overflow: visible;"><svg xmlns="http://www.w3.org/2000/svg" viewBox="0 0 101.26000213623047 89.86470031738281"><title>资源 108</title><path d="M2.05 11C1.37 7.43.74 4.17 0 .32h6.43C15.19.5 24-.08 32.68 1c18.3 2.34 32 18.49 32.07 36.91.09 16-.06 31.92.08 47.88 0 3.14-.78 4.41-4 4a54.87 54.87 0 0 0-6.46 0c-.08-1.67-.21-3.06-.21-4.45 0-15.36.05-30.72 0-46.08C54 22.7 42.19 11 25.62 11z" fill="#133157"></path><path d="M47 89.59H36.51v-4.41-45c0-7.71-3.78-11.52-11.47-11.6-5.52 0-11-.09-16.57.05-2.37.06-3.52-.69-3.76-3.14-.21-2.25-.8-4.47-1.3-7.12A30.28 30.28 0 0 1 6.57 18c6.61 0 13.21-.07 19.82 0 11.87.12 20.7 9 20.73 20.82.05 15.72 0 31.44 0 47.16 0 1.09-.12 2.15-.12 3.61z" fill="#133157"></path><path d="M101.26 0a72.13 72.13 0 0 1-1.59 9 3.88 3.88 0 0 1-3 1.94c-6.35.19-12.71-.07-19.06.16-3.91.14-7.79.95-11.7 1.33a3.87 3.87 0 0 1-2.82-.65C61 9.61 59.2 7.26 57 4.66 71.22-2.63 86.18 1.59 101.26 0zM67.77 19c10.11-2 20-.65 30.24-1a82 82 0 0 1-1.85 8.89c-.25.78-1.93 1.56-3 1.58-7.29.13-14.59.07-22.26.07C70 25.8 69 22.68 67.77 19z" fill="#fcb51f"></path></svg></svg> <!----></g></g> <g transform="translate(67,0)"><g data-gra="path-name" fill-rule="" class="tp-name iconsvg-namesvg" transform="translate(0,0)"><g transform="scale(1)"><g><path d="M17.58-35.16L17.58-35.16 24.96-35.16 25.66-32.87 40.25-32.87 40.25-29.18 27.25-29.18 27.25-26.72 34.45-26.72Q36.56-26.72 37.62-24.61L37.62-24.61Q37.97-23.91 37.97-23.2L37.97-23.2 37.97-19.86 40.96-19.86 40.96-16.17 37.97-16.17 37.97-9.14 27.25-9.14 27.25-7.21 35.51-7.21Q36.91-7.21 37.79-6.33L37.79-6.33Q39.02-5.1 39.02-3.87L39.02-3.87 39.02 5.45 9.84 5.45 9.84-7.21 16.88-7.21 16.88 1.93 31.99 1.93 31.99-1.93Q31.99-2.99 30.76-3.52L30.76-3.52Q30.41-3.52 30.23-3.52L30.23-3.52 18.11-3.52 18.11-7.21 20.21-7.21 20.21-9.14 10.02-9.14 10.02-12.83 20.21-12.83 20.21-16.17 9.14-16.17 9.14-9.32Q9.14-2.64 8.26 0.88L8.26 0.88Q7.56 3.34 6.68 5.1L6.68 5.1Q6.68 5.27 6.5 5.45L6.5 5.45 0 5.45 0 5.45Q0.7 4.04 1.41 1.05L1.41 1.05Q1.93-0.7 2.29-3.34L2.29-3.34Q2.64-6.68 2.64-8.61L2.64-8.61 2.64-32.87 18.28-32.87 18.28-32.87Q17.58-35.16 17.58-35.16ZM20.21-29.18L9.14-29.18 9.14-19.86 20.21-19.86 20.21-23.03 10.02-23.03 10.02-26.72 20.21-26.72 20.21-29.18ZM29.71-23.03L27.25-23.03 27.25-19.86 31.46-19.86 31.46-21.45Q31.46-22.5 30.41-23.03L30.41-23.03Q30.06-23.03 29.71-23.03L29.71-23.03ZM31.46-16.17L27.25-16.17 27.25-12.83 31.46-12.83 31.46-16.17ZM61.17 1.93L61.17-35.16 68.55-35.16 68.55 1.93 74.53 1.93 74.53 5.45 49.04 5.45Q47.46 5.45 46.23 4.04L46.23 4.04Q45.53 3.16 45.53 1.93L45.53 1.93 45.53-29.36 53.09-29.36 53.09 0.18Q53.09 1.23 54.14 1.76L54.14 1.76Q54.32 1.93 54.67 1.93L54.67 1.93 61.17 1.93ZM75.94 5.45L75.94-29.36 83.32-29.36 83.32 5.45 75.94 5.45ZM93.52 5.45L93.52-35.16 99.32-35.16 99.32 5.45 93.52 5.45ZM105.47-30.59L105.47-34.1 128.85-34.1 128.85-30.59 105.47-30.59ZM88.77-30.23L88.95-30.23 92.99-30.23 92.99-30.23 92.99-30.06Q92.99-29.53 91.93-3.87L91.93-3.87 87.89-3.87 88.77-30.23 88.77-30.23ZM99.84-30.23L99.84-30.23 103.89-30.23 103.89-30.06Q103.89-29.71 104.77-3.87L104.77-3.87 100.72-3.87Q99.84-29.53 99.84-30.06L99.84-30.06 99.84-30.23ZM106.17-1.58L106.17-27.07 113.2-27.07 113.2-16.17 121.29-16.17 121.29-21.62Q121.29-22.85 120.06-23.2L120.06-23.2Q119.71-23.38 119.53-23.38L119.53-23.38 114.43-23.38 114.43-27.07 124.8-27.07Q126.74-27.07 127.79-25.14L127.79-25.14Q128.14-24.43 128.14-23.55L128.14-23.55 128.14-1.58 106.17-1.58ZM121.29-12.48L113.2-12.48 113.2-5.27 121.29-5.27 121.29-12.48ZM104.77 5.45L104.77 1.93 128.85 1.93 128.85 5.45 104.77 5.45ZM134.3-16.88L134.3-34.45 141.86-34.45 141.86-27.42 148.54-27.42 148.54-30.76 143.09-30.76 143.09-34.45 166.82-34.45Q168.57-34.45 169.8-32.7L169.8-32.7Q170.33-31.99 170.33-30.94L170.33-30.94 170.33-16.88Q169.28-16.88 168.93-16.88L168.93-16.88Q159.79-16.88 153.28-16.88L153.28-16.88 152.23-16.88Q145.37-16.88 135-16.88L135-16.88Q134.82-16.88 134.3-16.88L134.3-16.88ZM161.02-30.76L156.09-30.76 156.09-27.42 162.77-27.42 162.77-29Q162.77-30.23 161.54-30.76L161.54-30.76Q161.37-30.76 161.02-30.76L161.02-30.76ZM148.54-23.91L141.86-23.91 141.86-20.57 148.54-20.57 148.54-23.91ZM162.77-23.91L156.09-23.91 156.09-20.57 162.77-20.57 162.77-23.91ZM139.04-15.64L139.04-15.64 146.43-15.64Q145.72-14.94 140.1-8.96L140.1-8.96Q139.22-8.09 139.22-7.91L139.22-7.91 131.84-7.91Q139.04-15.64 139.04-15.64ZM147.66-15.64L147.66-15.64 164-15.64Q165.76-15.64 167.7-13.54L167.7-13.54 172.79-7.91 165.41-7.91Q165.41-8.09 163.13-10.55L163.13-10.55Q161.72-12.13 160.49-12.13L160.49-12.13 144.32-12.13Q146.78-14.77 147.66-15.64ZM138.87-7.03L138.87-7.03 146.25-7.03 146.25-7.03Q146.25-0.35 145.37 2.29L145.37 2.29Q145.37 2.64 144.49 5.27L144.49 5.27Q144.49 5.45 144.49 5.45L144.49 5.45 137.11 5.45Q138.87 1.58 138.87-4.57L138.87-4.57Q138.87-6.68 138.87-7.03L138.87-7.03ZM158.38-7.03L158.38-7.03 165.76-7.03Q165.76-7.03 165.76-7.03L165.76-7.03 165.76 5.45 158.38 5.45 158.38-7.03Q158.38-7.03 158.38-7.03Z" transform="translate(0, 35.15999984741211)"></path></g> <!----> <!----> <!----> <!----> <!----> <!----> <!----></g></g> <g data-gra="path-slogan" fill-rule="" class="tp-slogan iconsvg-slogansvg" fill="#333" transform="translate(4.999992370605469,46.61000061035156)"><rect x="0" height="1" y="3.9750003814697266" width="18.019996643066406"></rect> <rect height="1" y="3.9750003814697266" width="18.019996643066406" x="144.7699966430664"></rect> <g transform="translate(21.019996643066406,0)"><g transform="scale(1)"><path d="M3.09-7.59L0.19-7.59L0.19-8.58L7.13-8.58L7.13-7.59L4.22-7.59L4.22 0L3.09 0L3.09-7.59ZM13.83 0L12.98-2.48L9.52-2.48L8.63 0L7.45 0L10.69-8.58L12-8.58L15.09 0L13.83 0ZM11.25-7.31L9.89-3.52L12.56-3.52L11.30-7.31L11.25-7.31ZM17.53-8.58L21.84-1.64L21.84-8.58L22.97-8.58L22.97 0L21.66 0L17.30-6.94L17.25-6.94L17.25 0L16.13 0L16.13-8.58L17.53-8.58ZM31.17-3.61L28.55-3.61L28.55-4.59L32.30-4.59L32.30 0L31.55 0L31.27-1.08Q30.28 0.09 28.45 0.14L28.45 0.14Q26.72 0.14 25.78-0.75L25.78-0.75Q24.38-2.06 24.42-4.36L24.42-4.36Q24.75-8.63 28.50-8.81L28.50-8.81Q31.69-8.63 32.16-6L32.16-6L31.03-6Q30.56-7.78 28.45-7.83L28.45-7.83Q25.78-7.64 25.64-4.31L25.64-4.31Q25.64-0.75 28.50-0.75L28.50-0.75Q29.53-0.75 30.28-1.31L30.28-1.31Q31.22-2.06 31.17-3.61L31.17-3.61ZM40.36-6.09L40.36-6.09L39.28-6.09Q39.19-7.73 37.13-7.83L37.13-7.83Q35.20-7.78 35.20-6.33L35.20-6.33Q35.20-5.39 36.23-5.25L36.23-5.25L38.67-4.69Q40.59-4.22 40.59-2.34L40.59-2.34Q40.55 0.05 37.22 0.14L37.22 0.14Q35.39 0.14 34.64-0.61L34.64-0.61Q33.70-1.31 33.75-2.77L33.75-2.77L34.88-2.77Q34.92-0.80 37.22-0.75L37.22-0.75Q39.47-0.80 39.52-2.20L39.52-2.20Q39.70-3.38 37.64-3.75L37.64-3.75L35.86-4.13Q34.03-4.64 34.03-6.19L34.03-6.19Q34.17-8.72 37.03-8.81L37.03-8.81Q40.27-8.81 40.36-6.09ZM43.22-5.06L47.72-5.06L47.72-8.58L48.89-8.58L48.89 0L47.72 0L47.72-3.98L43.22-3.98L43.22 0L42.05 0L42.05-8.58L43.22-8.58L43.22-5.06ZM56.34 0L55.50-2.48L52.03-2.48L51.14 0L49.97 0L53.20-8.58L54.52-8.58L57.61 0L56.34 0ZM53.77-7.31L52.41-3.52L55.08-3.52L53.81-7.31L53.77-7.31ZM60.05-8.58L64.36-1.64L64.36-8.58L65.48-8.58L65.48 0L64.17 0L59.81-6.94L59.77-6.94L59.77 0L58.64 0L58.64-8.58L60.05-8.58ZM71.77-5.06L76.27-5.06L76.27-8.58L77.44-8.58L77.44 0L76.27 0L76.27-3.98L71.77-3.98L71.77 0L70.59 0L70.59-8.58L71.77-8.58L71.77-5.06ZM80.53-1.03L85.69-1.03L85.69 0L79.36 0L79.36-8.58L85.59-8.58L85.59-7.59L80.53-7.59L80.53-4.92L85.22-4.92L85.22-3.89L80.53-3.89L80.53-1.03ZM88.59-8.58L92.91-1.64L92.91-8.58L94.03-8.58L94.03 0L92.72 0L88.36-6.94L88.31-6.94L88.31 0L87.19 0L87.19-8.58L88.59-8.58ZM102.23-3.61L99.61-3.61L99.61-4.59L103.36-4.59L103.36 0L102.61 0L102.33-1.08Q101.34 0.09 99.52 0.14L99.52 0.14Q97.78 0.14 96.84-0.75L96.84-0.75Q95.44-2.06 95.48-4.36L95.48-4.36Q95.81-8.63 99.56-8.81L99.56-8.81Q102.75-8.63 103.22-6L103.22-6L102.09-6Q101.63-7.78 99.52-7.83L99.52-7.83Q96.84-7.64 96.70-4.31L96.70-4.31Q96.70-0.75 99.56-0.75L99.56-0.75Q100.59-0.75 101.34-1.31L101.34-1.31Q102.28-2.06 102.23-3.61L102.23-3.61ZM104.44-1.92L104.44-2.77L105.52-2.77L105.52-2.16Q105.52-0.75 106.83-0.75L106.83-0.75Q108.19-0.75 108.19-2.25L108.19-2.25L108.19-8.58L109.36-8.58L109.36-2.30Q109.31 0.09 106.88 0.14L106.88 0.14Q104.58 0.09 104.44-1.92L104.44-1.92ZM111.33-8.58L112.50-8.58L112.50 0L111.33 0L111.33-8.58ZM115.78-1.03L120.94-1.03L120.94 0L114.61 0L114.61-8.58L120.84-8.58L120.84-7.59L115.78-7.59L115.78-4.92L120.47-4.92L120.47-3.89L115.78-3.89L115.78-1.03Z" transform="translate(-0.1875, 8.8125)"></path></g></g></g></g></g><defs v-gra="od"></defs></svg>